<?xml version="1.0" encoding="utf-8"?>
<svg version="1.1" xmlns:xlink="http://www.w3.org/1999/xlink" width="32px" height="32px" xmlns="http://www.w3.org/2000/svg">
  <g transform="matrix(1 0 0 1 -40 -90 )">
    <path d="M 56 91  C 64.4 91  71 97.6  71 106  C 71 114.4  64.4 121  56 121  C 47.6 121  41 114.4  41 106  C 41 97.6  47.6 91  56 91  Z " fill-rule="nonzero" fill="#ffffff" stroke="none" />
    <path d="M 56 91  C 64.4 91  71 97.6  71 106  C 71 114.4  64.4 121  56 121  C 47.6 121  41 114.4  41 106  C 41 97.6  47.6 91  56 91  Z " stroke-width="2" stroke="#797979" fill="none" />
  </g>
</svg>