<?xml version="1.0" encoding="utf-8"?>
<svg version="1.1" xmlns:xlink="http://www.w3.org/1999/xlink" width="24px" height="24px" xmlns="http://www.w3.org/2000/svg">
  <g transform="matrix(1 0 0 1 -85 -265 )">
    <path d="M 97 266  C 103.16 266  108 270.84  108 277  C 108 283.16  103.16 288  97 288  C 90.84 288  86 283.16  86 277  C 86 270.84  90.84 266  97 266  Z " fill-rule="nonzero" fill="#ffffff" stroke="none" />
    <path d="M 97 266  C 103.16 266  108 270.84  108 277  C 108 283.16  103.16 288  97 288  C 90.84 288  86 283.16  86 277  C 86 270.84  90.84 266  97 266  Z " stroke-width="2" stroke="#797979" fill="none" />
  </g>
</svg>