<?xml version="1.0" encoding="utf-8"?>
<svg version="1.1" xmlns:xlink="http://www.w3.org/1999/xlink" width="20px" height="17px" xmlns="http://www.w3.org/2000/svg">
  <g transform="matrix(1 0 0 1 -46 -1855 )">
    <path d="M 15.1692708333333 7.90234375  C 15.3342013888889 8.07057291666667  15.4166666666667 8.26979166666667  15.4166666666667 8.5  C 15.4166666666667 8.73020833333333  15.3342013888889 8.92942708333333  15.1692708333333 9.09765625  L 8.0859375 16.32265625  C 7.92100694444445 16.4908854166667  7.72569444444445 16.575  7.5 16.575  C 7.27430555555556 16.575  7.07899305555556 16.4908854166667  6.9140625 16.32265625  C 6.74913194444445 16.1544270833333  6.66666666666667 15.9552083333333  6.66666666666667 15.725  L 6.66666666666667 11.9  L 0.833333333333333 11.9  C 0.607638888888889 11.9  0.412326388888889 11.8158854166667  0.247395833333333 11.64765625  C 0.0824652777777778 11.4794270833333  0 11.2802083333333  0 11.05  L 0 5.95  C 0 5.71979166666666  0.0824652777777778 5.52057291666666  0.247395833333333 5.35234375  C 0.412326388888889 5.18411458333333  0.607638888888889 5.1  0.833333333333333 5.1  L 6.66666666666667 5.1  L 6.66666666666667 1.275  C 6.66666666666667 1.04479166666666  6.74913194444445 0.845572916666664  6.9140625 0.677343749999999  C 7.07899305555556 0.509114583333333  7.27430555555556 0.425  7.5 0.425  C 7.72569444444445 0.425  7.92100694444445 0.509114583333333  8.0859375 0.677343749999999  L 15.1692708333333 7.90234375  Z M 18.8997395833333 1.122265625  C 19.6332465277778 1.87044270833333  20 2.77135416666666  20 3.825  L 20 13.175  C 20 14.2286458333333  19.6332465277778 15.1295572916667  18.8997395833333 15.877734375  C 18.1662326388889 16.6259114583333  17.2829861111111 17  16.25 17  L 12.0833333333333 17  C 11.9704861111111 17  11.8728298611111 16.9579427083333  11.7903645833333 16.873828125  C 11.7078993055556 16.7897135416667  11.6666666666667 16.6901041666667  11.6666666666667 16.575  C 11.6666666666667 16.5395833333333  11.6623263888889 16.4510416666667  11.6536458333333 16.309375  C 11.6449652777778 16.1677083333333  11.6427951388889 16.050390625  11.6471354166667 15.957421875  C 11.6514756944444 15.864453125  11.6644965277778 15.7604166666667  11.6861979166667 15.6453125  C 11.7078993055556 15.5302083333333  11.7513020833333 15.4438802083333  11.81640625 15.386328125  C 11.8815104166667 15.3287760416667  11.9704861111111 15.3  12.0833333333333 15.3  L 16.25 15.3  C 16.8229166666667 15.3  17.3133680555556 15.0919270833333  17.7213541666667 14.67578125  C 18.1293402777778 14.2596354166667  18.3333333333333 13.759375  18.3333333333333 13.175  L 18.3333333333333 3.825  C 18.3333333333333 3.240625  18.1293402777778 2.74036458333333  17.7213541666667 2.32421875  C 17.3133680555556 1.90807291666666  16.8229166666667 1.7  16.25 1.7  L 12.5 1.7  L 12.3567708333333 1.7  L 12.1875 1.7  C 12.1875 1.7  12.1375868055556 1.69557291666666  12.0377604166667 1.68671875  C 11.9379340277778 1.67786458333333  11.8880208333333 1.66458333333333  11.8880208333333 1.646875  C 11.8880208333333 1.62916666666666  11.8532986111111 1.60481770833333  11.7838541666667 1.573828125  C 11.7144097222222 1.54283854166666  11.6840277777778 1.50299479166666  11.6927083333333 1.454296875  C 11.7013888888889 1.40559895833333  11.6927083333333 1.34583333333333  11.6666666666667 1.275  C 11.6666666666667 1.23958333333333  11.6623263888889 1.15104166666667  11.6536458333333 1.009375  C 11.6449652777778 0.867708333333333  11.6427951388889 0.750390625000001  11.6471354166667 0.657421875  C 11.6514756944444 0.564453125  11.6644965277778 0.460416666666665  11.6861979166667 0.345312499999999  C 11.7078993055556 0.230208333333332  11.7513020833333 0.143880208333333  11.81640625 0.0863281250000008  C 11.8815104166667 0.028776041666665  11.9704861111111 0  12.0833333333333 0  L 16.25 0  C 17.2829861111111 0  18.1662326388889 0.374088541666664  18.8997395833333 1.122265625  Z " fill-rule="nonzero" fill="#000000" stroke="none" transform="matrix(1 0 0 1 46 1855 )" />
  </g>
</svg>