<?xml version="1.0" encoding="utf-8"?>
<svg version="1.1" xmlns:xlink="http://www.w3.org/1999/xlink" width="100px" height="57px" xmlns="http://www.w3.org/2000/svg">
  <g transform="matrix(1 0 0 1 0 -7 )">
    <path d="M 0 7  L 100 7  L 100 64  L 0 64  L 0 7  " fill-rule="nonzero" fill="#cccccc" stroke="none" />
    <path d="M 4 11  L 96 11  L 96 60  L 4 60  L 4 11  " fill-rule="nonzero" fill="#ffffff" stroke="none" />
    <path d="M 56.275 24.1  C 53.881 24.1  52 22.219  52 19.825  C 52 17.431  53.881 15.55  56.275 15.55  C 58.669 15.55  60.55 17.431  60.55 19.825  C 60.55 22.219  58.669 24.1  56.275 24.1  " fill-rule="nonzero" fill="#cccccc" stroke="none" />
    <path d="M 6 59  L 6 33.7  L 28.25 22.2  L 59.4 43.268  L 77.2 29.1  L 95 43.268  L 95 59  L 6 59  " fill-rule="nonzero" fill="#169bd5" stroke="none" />
  </g>
</svg>