<?xml version="1.0" encoding="utf-8"?>
<svg version="1.1" xmlns:xlink="http://www.w3.org/1999/xlink" width="40px" height="50px" xmlns="http://www.w3.org/2000/svg">
  <g transform="matrix(1 0 0 1 -57 -5 )">
    <path d="M 57 5  L 97 5  L 97 55  L 57 55  L 57 5  " fill-rule="nonzero" fill="#cccccc" stroke="none" />
    <path d="M 60 8  L 94 8  L 94 52  L 60 52  L 60 8  " fill-rule="nonzero" fill="#ffffff" stroke="none" />
    <path d="M 80.8 18.5  C 79.12 18.5  77.8 17.18  77.8 15.5  C 77.8 13.82  79.12 12.5  80.8 12.5  C 82.48 12.5  83.8 13.82  83.8 15.5  C 83.8 17.18  82.48 18.5  80.8 18.5  " fill-rule="nonzero" fill="#cccccc" stroke="none" />
    <path d="M 61 51  L 61 27.9  L 69 17.4  L 80.2 25.8  L 86.6 23.7  L 93 25.8  L 93 51  L 61 51  " fill-rule="nonzero" fill="#169bd5" stroke="none" />
  </g>
</svg>